<svg xmlns="http://www.w3.org/2000/svg" width="19" height="16.467" viewBox="0 0 19 16.467">
  <path id="cinema_icon" d="M3.8,14.567V13.3a.642.642,0,0,0-.633-.633H1.9a.61.61,0,0,0-.445.188.606.606,0,0,0-.188.445v1.267A.642.642,0,0,0,1.9,15.2H3.167a.642.642,0,0,0,.633-.633Zm0-3.8V9.5a.642.642,0,0,0-.633-.633H1.9a.61.61,0,0,0-.445.188.606.606,0,0,0-.188.445v1.267A.642.642,0,0,0,1.9,11.4H3.167a.642.642,0,0,0,.633-.633Zm0-3.8V5.7a.642.642,0,0,0-.633-.633H1.9a.61.61,0,0,0-.445.188.606.606,0,0,0-.188.445V6.967A.642.642,0,0,0,1.9,7.6H3.167A.642.642,0,0,0,3.8,6.967Zm10.133,7.6V9.5a.642.642,0,0,0-.633-.633H5.7a.642.642,0,0,0-.633.633v5.067A.642.642,0,0,0,5.7,15.2h7.6a.642.642,0,0,0,.633-.633ZM3.8,3.167V1.9a.61.61,0,0,0-.188-.445.606.606,0,0,0-.445-.188H1.9a.61.61,0,0,0-.445.188.606.606,0,0,0-.188.445V3.167A.642.642,0,0,0,1.9,3.8H3.167A.642.642,0,0,0,3.8,3.167Zm13.933,11.4V13.3a.642.642,0,0,0-.633-.633H15.833a.642.642,0,0,0-.633.633v1.267a.642.642,0,0,0,.633.633H17.1a.642.642,0,0,0,.633-.633Zm-3.8-7.6V1.9a.61.61,0,0,0-.188-.445.606.606,0,0,0-.445-.188H5.7a.642.642,0,0,0-.633.633V6.967A.642.642,0,0,0,5.7,7.6h7.6a.642.642,0,0,0,.633-.633Zm3.8,3.8V9.5a.642.642,0,0,0-.633-.633H15.833A.642.642,0,0,0,15.2,9.5v1.267a.642.642,0,0,0,.633.633H17.1a.642.642,0,0,0,.633-.633Zm0-3.8V5.7a.642.642,0,0,0-.633-.633H15.833A.642.642,0,0,0,15.2,5.7V6.967a.642.642,0,0,0,.633.633H17.1a.642.642,0,0,0,.633-.633Zm0-3.8V1.9a.61.61,0,0,0-.188-.445.606.606,0,0,0-.445-.188H15.833A.642.642,0,0,0,15.2,1.9V3.167a.642.642,0,0,0,.633.633H17.1a.642.642,0,0,0,.633-.633ZM19,1.583v13.3a1.588,1.588,0,0,1-1.583,1.583H1.583A1.525,1.525,0,0,1,.465,16,1.525,1.525,0,0,1,0,14.883V1.583A1.525,1.525,0,0,1,.465.465,1.525,1.525,0,0,1,1.583,0H17.417a1.525,1.525,0,0,1,1.118.465A1.525,1.525,0,0,1,19,1.583Z"/>
</svg>
