<svg xmlns="http://www.w3.org/2000/svg" width="19" height="20.461" viewBox="0 0 19 20.461">
  <g id="cleaning_icon" transform="translate(-2.375 -1.187)">
    <path id="Path_97" data-name="Path 97" d="M15.438,11.875H11.875V10.687h3.563Z" transform="translate(2.85 2.361)"/>
    <path id="Path_98" data-name="Path 98" d="M17.813,16.625H14.25V15.437h3.563Z" transform="translate(3.562 3.836)"/>
    <path id="Path_99" data-name="Path 99" d="M16.625,14.25H13.062V13.062h3.563Z" transform="translate(3.562 2.951)"/>
    <path id="Path_100" data-name="Path 100" d="M12.669,14.341a3.535,3.535,0,0,0-1.9-3.05l5.858-9.373-1.369-.731-6,9.592a4.768,4.768,0,0,0-4.15,1.1c-2.965,2.639-2.735,8.808-2.724,9.069a.766.766,0,0,0,.792.7H15.042a.789.789,0,0,0,.75-.5.7.7,0,0,0-.276-.816c-2.8-1.941-2.848-5.953-2.848-5.992ZM8.653,12.147a2.379,2.379,0,0,1,2.433,2.194c0,.028,0,.151.013.342l-4.67-1.917a3.182,3.182,0,0,1,2.224-.619Zm2.785,8.04a3.69,3.69,0,0,1-1.147-2.192H8.708a4.5,4.5,0,0,0,.767,2.192H7.715a11.313,11.313,0,0,1-.589-2.923H5.542a11.787,11.787,0,0,0,.527,2.923H3.959a13.612,13.612,0,0,1,1.428-6.25l5.964,2.448a9.163,9.163,0,0,0,1.788,3.8Z" transform="translate(0)"/>
  </g>
</svg>
