<svg xmlns="http://www.w3.org/2000/svg" width="32.163" height="40" viewBox="0 0 32.163 40">
  <g id="flash_icon" transform="translate(-6 -0.999)">
    <g id="Group_14" data-name="Group 14" transform="translate(6 0.999)">
      <path id="Path_60" data-name="Path 60" d="M37.269,16.652H23.079L24.755,1.965a.867.867,0,0,0-.564-.906.906.906,0,0,0-1.045.3L6.172,23.965a.85.85,0,0,0-.075.906.9.9,0,0,0,.8.477h14.19L19.407,40.034a.867.867,0,0,0,.564.906.91.91,0,0,0,1.045-.3L37.991,18.034a.85.85,0,0,0,.075-.906A.9.9,0,0,0,37.269,16.652Z" transform="translate(-6 -0.999)"/>
    </g>
  </g>
</svg>
