<svg xmlns="http://www.w3.org/2000/svg" width="23.25" height="18.166" viewBox="0 0 23.25 18.166">
  <g id="gas_icon" transform="translate(-1.188 -1.781)">
    <path id="Path_106" data-name="Path 106" d="M4.75,5.938H8.906V7.126H4.75Z" transform="translate(2.165 1.011)" fill="#0d0d0d"/>
    <path id="Path_107" data-name="Path 107" d="M23.933,5.414,19.627,1.781,18.41,2.809l2.583,2.179V8.32a1.607,1.607,0,0,0,1.723,1.454V17.4a1.318,1.318,0,0,1-2.583,0V11.227a.8.8,0,0,0-.861-.727H15.827V3.235a.8.8,0,0,0-.861-.727H3.771a.8.8,0,0,0-.861.727V18.493H1.188v1.454H17.549V18.493H15.826V11.953h2.583V17.33a2.719,2.719,0,0,0,2.381,2.561,3.449,3.449,0,0,0,2.527-.511A2.42,2.42,0,0,0,24.438,17.4V6.442a1.349,1.349,0,0,0-.5-1.028ZM14.1,18.493H4.632V3.962H14.1Z" transform="translate(0 0)" fill="#0d0d0d"/>
  </g>
</svg>
