<svg xmlns="http://www.w3.org/2000/svg" width="19" height="14.964" viewBox="0 0 19 14.964">
  <g id="gym_icon" transform="translate(-2.396 -5.71)">
    <path id="Path_81" data-name="Path 81" d="M30.411,14.8,25.248,7.43l2.458-1.72,5.162,7.373Z" transform="translate(-12.209)"/>
    <path id="Path_82" data-name="Path 82" d="M16.622,13.536l-1.272-2.067L9.291,16.29l1.272,2.065-1.211.965-3.393-5.51,1.211-.964,1.272,2.066L14.5,10.091,13.228,8.025l1.211-.964,3.393,5.509-1.211.965Z"/>
    <path id="Path_83" data-name="Path 83" d="M31.148,10.625,33.6,8.9l-1.72-2.457-2.457,1.72,1.72,2.457Z" transform="translate(-12.209)"/>
    <path id="Path_84" data-name="Path 84" d="M10.752,28.569,5.589,21.2l-2.457,1.72,5.162,7.373,2.458-1.72Z" transform="translate(0 -9.615)"/>
    <path id="Path_85" data-name="Path 85" d="M6.573,27.832l-2.457,1.72L2.4,27.095l2.457-1.72Z" transform="translate(0 -9.615)"/>
  </g>
</svg>
