<svg xmlns="http://www.w3.org/2000/svg" width="19" height="13.572" viewBox="0 0 19 13.572">
  <g id="leisure_icon" transform="translate(-1.188 -3.563)">
    <path id="Path_102" data-name="Path 102" d="M20.188,15.438H18.83a3.529,3.529,0,0,1-2.714-1.18,3.713,3.713,0,0,1-5.429,0,3.594,3.594,0,0,1-2.714,1.179,3.594,3.594,0,0,1-2.714-1.179,3.529,3.529,0,0,1-2.714,1.18H1.188V14.25H2.546a2.312,2.312,0,0,0,2.072-1.378.658.658,0,0,1,.641-.4.682.682,0,0,1,.643.406A2.312,2.312,0,0,0,7.973,14.25a2.312,2.312,0,0,0,2.072-1.378.671.671,0,0,1,.642-.4.682.682,0,0,1,.643.406,2.247,2.247,0,0,0,4.143,0,.714.714,0,0,1,1.287,0,2.311,2.311,0,0,0,2.07,1.375h1.358Z" transform="translate(0 1.696)"/>
    <path id="Path_103" data-name="Path 103" d="M13.656,10.442l-5.17-5.17A1.769,1.769,0,0,0,7.227,4.75H2.375V5.938H7.227a.59.59,0,0,1,.42.174L9.254,7.719,5.938,11.035l.839.84,3.317-3.317,2.723,2.723Z"/>
    <path id="Path_104" data-name="Path 104" d="M11.875,5.938A2.375,2.375,0,1,1,14.25,8.313a2.375,2.375,0,0,1-2.375-2.375Zm1.188,0A1.188,1.188,0,1,0,14.251,4.75a1.188,1.188,0,0,0-1.188,1.188Z" transform="translate(2.375)"/>
  </g>
</svg>
