<svg xmlns="http://www.w3.org/2000/svg" width="19" height="22.167" viewBox="0 0 19 22.167">
  <g id="padlock_icon" transform="translate(-2.375 -1.188)">
    <path id="Path_105" data-name="Path 105" d="M18.208,10.688a3.167,3.167,0,0,1,3.167,3.167v6.333a3.167,3.167,0,0,1-3.167,3.167H5.542a3.167,3.167,0,0,1-3.167-3.167V13.855a3.167,3.167,0,0,1,3.167-3.167V7.521a6.333,6.333,0,0,1,12.667,0ZM11.875,3.3A4.223,4.223,0,0,1,16.1,7.521v3.167H7.652V7.521A4.223,4.223,0,0,1,11.875,3.3Zm6.333,9.5H5.542a1.056,1.056,0,0,0-1.056,1.056v6.333a1.056,1.056,0,0,0,1.056,1.056H18.208a1.056,1.056,0,0,0,1.056-1.056V13.855A1.056,1.056,0,0,0,18.208,12.8Z" transform="translate(0 0)" fill-rule="evenodd"/>
  </g>
</svg>
