<svg xmlns="http://www.w3.org/2000/svg" width="19" height="17.49" viewBox="0 0 19 17.49">
  <path id="pet_icon" d="M16.06,8.05,13.734,4.69A1.9,1.9,0,0,0,12.2,3.872L7.784,3.808H7.775c-2.279,0-4.028.381-5.154,2.242-1.049,1.732-1.5,4.682-1.5,9.865v.633H2.572L1.641,21.3H2.932l.932-4.75h.428a3.94,3.94,0,0,0,2.774-1.108,5.15,5.15,0,0,0,1.4-2.544l0-.009L9.556,7.681H8.262L7.234,12.609a3.145,3.145,0,0,1-2.942,2.672h-1.9C2.428,10.8,2.836,8.139,3.7,6.706,4.433,5.5,5.5,5.076,7.771,5.075l4.41.064a.634.634,0,0,1,.512.273l2.631,3.8,3.535.589v.671l-.589,3.144c-.174.928-.471,1.4-1.691,1.542l-5,.855L11.545,21.3h1.267l.026-4.215,3.907-.669a3.184,3.184,0,0,0,2-.871,3.136,3.136,0,0,0,.772-1.692l.611-3.26V8.728Z" transform="translate(-1.125 -3.808)"/>
</svg>
