<svg xmlns="http://www.w3.org/2000/svg" width="19" height="17.48" viewBox="0 0 19 17.48">
  <g id="workspace_icon" transform="translate(-4.5 -4.5)">
    <path id="Path_93" data-name="Path 93" d="M18,19.125v9H6.75v-9H18m0-2.25H6.75a2.25,2.25,0,0,0-2.25,2.25v9a2.25,2.25,0,0,0,2.25,2.25H18a2.25,2.25,0,0,0,2.25-2.25v-9A2.25,2.25,0,0,0,18,16.875Z" transform="translate(0 -8.395)"/>
    <path id="Path_94" data-name="Path 94" d="M30.375,6.75v5.625H19.125V6.75h11.25m0-2.25H19.125a2.25,2.25,0,0,0-2.25,2.25v5.625a2.25,2.25,0,0,0,2.25,2.25h11.25a2.25,2.25,0,0,0,2.25-2.25V6.75A2.25,2.25,0,0,0,30.375,4.5Z" transform="translate(-9.125)"/>
    <path id="Path_95" data-name="Path 95" d="M30.375,19.125V24.75H24.75V19.125h5.625m0-2.25H24.75a2.25,2.25,0,0,0-2.25,2.25V24.75A2.25,2.25,0,0,0,24.75,27h5.625a2.25,2.25,0,0,0,2.25-2.25V19.125A2.25,2.25,0,0,0,30.375,16.875Z" transform="translate(-9.125 -8.395)"/>
    <path id="Path_96" data-name="Path 96" d="M12.375,6.75v5.625H6.75V6.75h5.625m0-2.25H6.75A2.25,2.25,0,0,0,4.5,6.75v5.625a2.25,2.25,0,0,0,2.25,2.25h5.625a2.25,2.25,0,0,0,2.25-2.25V6.75A2.25,2.25,0,0,0,12.375,4.5Z"/>
  </g>
</svg>
