<svg xmlns="http://www.w3.org/2000/svg" width="18.999" height="19" viewBox="0 0 18.999 19">
  <path id="bathroom_icon" d="M17.643,11.536v2.036A3.951,3.951,0,0,1,16.286,16.6v2.057a.332.332,0,0,1-.095.244.325.325,0,0,1-.244.095h-.679a.332.332,0,0,1-.244-.095.325.325,0,0,1-.1-.244V17.41a4.094,4.094,0,0,1-1.357.233H5.429a4.094,4.094,0,0,1-1.357-.233v1.166a.458.458,0,0,1-.1.3A.3.3,0,0,1,3.732,19H3.053a.3.3,0,0,1-.239-.122.454.454,0,0,1-.1-.3V16.6a3.953,3.953,0,0,1-1.357-3.032V11.536ZM7.464,7.125a.332.332,0,0,1-.095.244.325.325,0,0,1-.244.095.336.336,0,0,1-.244-.095.361.361,0,0,1,0-.488.336.336,0,0,1,.244-.095.325.325,0,0,1,.244.095A.332.332,0,0,1,7.464,7.125Zm.679-.679a.332.332,0,0,1-.1.244.325.325,0,0,1-.244.095A.336.336,0,0,1,7.56,6.69a.361.361,0,0,1,0-.488A.336.336,0,0,1,7.8,6.107a.325.325,0,0,1,.244.095A.332.332,0,0,1,8.143,6.446Zm-.679-.679a.332.332,0,0,1-.095.244.325.325,0,0,1-.244.095.336.336,0,0,1-.244-.095.361.361,0,0,1,0-.488.336.336,0,0,1,.244-.095.325.325,0,0,1,.244.095A.332.332,0,0,1,7.464,5.767Zm1.357,0a.332.332,0,0,1-.1.244.325.325,0,0,1-.244.095.336.336,0,0,1-.244-.095.361.361,0,0,1,0-.488.336.336,0,0,1,.244-.095.325.325,0,0,1,.244.095A.332.332,0,0,1,8.821,5.767Zm-.679-.679a.332.332,0,0,1-.1.244.325.325,0,0,1-.244.095.336.336,0,0,1-.244-.095.361.361,0,0,1,0-.488A.336.336,0,0,1,7.8,4.749a.325.325,0,0,1,.244.095A.332.332,0,0,1,8.142,5.088Zm-.679-.679a.332.332,0,0,1-.095.244.325.325,0,0,1-.244.095.336.336,0,0,1-.244-.095.361.361,0,0,1,0-.488.336.336,0,0,1,.244-.095.325.325,0,0,1,.244.095A.332.332,0,0,1,7.463,4.409ZM19,9.838v.679a.332.332,0,0,1-.095.244.325.325,0,0,1-.244.1H.339a.332.332,0,0,1-.244-.1A.325.325,0,0,1,0,10.517V9.838a.332.332,0,0,1,.095-.244.325.325,0,0,1,.244-.1H1.357V2.714A2.615,2.615,0,0,1,2.152.795,2.615,2.615,0,0,1,4.071,0,2.624,2.624,0,0,1,6.022.827a2.061,2.061,0,0,1,2.025.287L8.28.881a.145.145,0,0,1,.233,0l.445.445a.145.145,0,0,1,0,.233L5.63,4.888a.145.145,0,0,1-.233,0l-.445-.445a.145.145,0,0,1,0-.233l.233-.233a2,2,0,0,1-.429-1.1A2,2,0,0,1,5,1.728a1.358,1.358,0,0,0-1.893.027,1.3,1.3,0,0,0-.4.959V9.5H18.66a.332.332,0,0,1,.244.1A.325.325,0,0,1,19,9.839ZM9.5,5.089a.332.332,0,0,1-.1.244.325.325,0,0,1-.244.095.336.336,0,0,1-.244-.095.361.361,0,0,1,0-.488.336.336,0,0,1,.244-.095.325.325,0,0,1,.244.095A.332.332,0,0,1,9.5,5.089ZM8.821,4.41a.332.332,0,0,1-.1.244.325.325,0,0,1-.244.095.336.336,0,0,1-.244-.095.361.361,0,0,1,0-.488.336.336,0,0,1,.244-.095.325.325,0,0,1,.244.095A.332.332,0,0,1,8.821,4.41Zm-.679-.679a.332.332,0,0,1-.1.244A.325.325,0,0,1,7.8,4.07a.336.336,0,0,1-.244-.1.361.361,0,0,1,0-.488.336.336,0,0,1,.244-.1.325.325,0,0,1,.244.1.332.332,0,0,1,.1.244Zm2.036.679a.332.332,0,0,1-.1.244.325.325,0,0,1-.244.095.336.336,0,0,1-.244-.095.361.361,0,0,1,0-.488.336.336,0,0,1,.244-.095.325.325,0,0,1,.244.095A.332.332,0,0,1,10.178,4.41ZM9.5,3.731a.332.332,0,0,1-.1.244.325.325,0,0,1-.244.095.336.336,0,0,1-.244-.1.361.361,0,0,1,0-.488.336.336,0,0,1,.244-.1.325.325,0,0,1,.244.1.332.332,0,0,1,.1.244ZM8.82,3.052a.332.332,0,0,1-.1.244.325.325,0,0,1-.244.1.336.336,0,0,1-.244-.1.361.361,0,0,1,0-.488.336.336,0,0,1,.244-.1.325.325,0,0,1,.244.1A.332.332,0,0,1,8.82,3.052Zm2.036.679a.332.332,0,0,1-.1.244.325.325,0,0,1-.244.095.336.336,0,0,1-.244-.1.361.361,0,0,1,0-.488.336.336,0,0,1,.244-.1.325.325,0,0,1,.244.1.332.332,0,0,1,.1.244Zm-.679-.679a.332.332,0,0,1-.1.244.325.325,0,0,1-.244.1.336.336,0,0,1-.244-.1.361.361,0,0,1,0-.488.336.336,0,0,1,.244-.1.325.325,0,0,1,.244.1A.332.332,0,0,1,10.177,3.052Zm1.357,0a.332.332,0,0,1-.1.244.325.325,0,0,1-.244.1.336.336,0,0,1-.244-.1.361.361,0,0,1,0-.488.336.336,0,0,1,.244-.1.325.325,0,0,1,.244.1A.332.332,0,0,1,11.534,3.052Z" transform="translate(0)"/>
</svg>
