<svg xmlns="http://www.w3.org/2000/svg" width="19" height="18.24" viewBox="0 0 19 18.24">
  <g id="bbq_icon" transform="translate(-3.375 -4.5)">
    <path id="Path_86" data-name="Path 86" d="M30.376,22.74a1.363,1.363,0,0,1-.9-.3l-.917-.826a5.213,5.213,0,0,1-1.8-5.538l1.657-5.226a4.053,4.053,0,0,0-1.4-4.307L26.1,5.716c-.373-.336-.272-.812.225-1.064A1.509,1.509,0,0,1,27.9,4.8l.917.826a5.213,5.213,0,0,1,1.8,5.537l-1.658,5.226a4.053,4.053,0,0,0,1.4,4.307l.915.825a.565.565,0,0,1,.106.8A1.261,1.261,0,0,1,30.376,22.74Z" transform="translate(-9.125)"/>
    <path id="Path_87" data-name="Path 87" d="M24.751,22.74a1.363,1.363,0,0,1-.9-.3l-.917-.826a5.213,5.213,0,0,1-1.8-5.538l1.657-5.226a4.053,4.053,0,0,0-1.4-4.307l-.915-.824C20.1,5.38,20.2,4.9,20.7,4.652a1.509,1.509,0,0,1,1.575.152l.917.826a5.213,5.213,0,0,1,1.8,5.537l-1.658,5.226a4.053,4.053,0,0,0,1.4,4.307l.915.825a.565.565,0,0,1,.106.8A1.261,1.261,0,0,1,24.751,22.74Z" transform="translate(-6.844)"/>
    <path id="Path_88" data-name="Path 88" d="M19.126,22.74a1.363,1.363,0,0,1-.9-.3l-.917-.826a5.213,5.213,0,0,1-1.8-5.538l1.657-5.226a4.053,4.053,0,0,0-1.4-4.307l-.915-.824c-.373-.336-.272-.812.225-1.064A1.509,1.509,0,0,1,16.65,4.8l.916.826a5.213,5.213,0,0,1,1.8,5.537l-1.658,5.226a4.053,4.053,0,0,0,1.4,4.307l.915.825a.565.565,0,0,1,.106.8A1.261,1.261,0,0,1,19.126,22.74Z" transform="translate(-4.563)"/>
    <path id="Path_89" data-name="Path 89" d="M13.5,22.74a1.363,1.363,0,0,1-.9-.3l-.917-.826a5.213,5.213,0,0,1-1.8-5.538l1.657-5.226a4.053,4.053,0,0,0-1.4-4.307l-.915-.824c-.373-.336-.272-.812.225-1.064a1.509,1.509,0,0,1,1.575.152l.917.826a5.213,5.213,0,0,1,1.8,5.537l-1.658,5.226a4.053,4.053,0,0,0,1.4,4.307l.915.825a.565.565,0,0,1,.106.8,1.261,1.261,0,0,1-1.005.42Z" transform="translate(-2.281)"/>
    <path id="Path_90" data-name="Path 90" d="M7.876,22.74a1.363,1.363,0,0,1-.9-.3l-.917-.826a5.213,5.213,0,0,1-1.8-5.538l1.658-5.226a4.053,4.053,0,0,0-1.4-4.307L3.6,5.716c-.373-.336-.272-.812.225-1.064A1.509,1.509,0,0,1,5.4,4.8l.917.826a5.213,5.213,0,0,1,1.8,5.537L6.459,16.392A4.053,4.053,0,0,0,7.86,20.7l.915.825a.565.565,0,0,1,.106.8,1.261,1.261,0,0,1-1.005.42Z"/>
  </g>
</svg>
