<svg xmlns="http://www.w3.org/2000/svg" width="19.001" height="11.874" viewBox="0 0 19.001 11.874">
  <path id="bedroom_icon" d="M2.375,7.125H18.406A.6.6,0,0,1,19,7.718v4.156H16.624V9.5H2.375v2.375H0V.594A.57.57,0,0,1,.176.177.575.575,0,0,1,.594,0H1.782A.57.57,0,0,1,2.2.176a.57.57,0,0,1,.176.417V7.124ZM7.719,4.156a2.288,2.288,0,0,0-.7-1.679,2.288,2.288,0,0,0-1.679-.7,2.288,2.288,0,0,0-1.679.7,2.288,2.288,0,0,0-.7,1.679,2.288,2.288,0,0,0,.7,1.679,2.288,2.288,0,0,0,1.679.7,2.288,2.288,0,0,0,1.679-.7A2.288,2.288,0,0,0,7.719,4.156ZM19,6.531V5.937a3.433,3.433,0,0,0-1.044-2.519,3.428,3.428,0,0,0-2.518-1.043H8.906a.6.6,0,0,0-.593.593V6.531H19Z"/>
</svg>
