<svg xmlns="http://www.w3.org/2000/svg" width="19" height="16.217" viewBox="0 0 19 16.217">
  <path id="bike_icon" d="M12.265,3.154a1.518,1.518,0,0,1-1.113-.464,1.518,1.518,0,0,1-.464-1.113A1.518,1.518,0,0,1,11.152.464a1.567,1.567,0,0,1,2.226,0,1.518,1.518,0,0,1,.464,1.113,1.518,1.518,0,0,1-.464,1.113A1.518,1.518,0,0,1,12.265,3.154ZM3.952,8.312a3.815,3.815,0,0,1,2.8,1.15,3.808,3.808,0,0,1,1.15,2.8,3.818,3.818,0,0,1-1.15,2.8,3.811,3.811,0,0,1-2.8,1.15,3.811,3.811,0,0,1-2.8-1.15A3.817,3.817,0,0,1,0,12.265a3.81,3.81,0,0,1,1.15-2.8,3.81,3.81,0,0,1,2.8-1.15Zm0,6.717A2.659,2.659,0,0,0,5.9,14.213a2.733,2.733,0,0,0,0-3.9A2.659,2.659,0,0,0,3.952,9.5,2.661,2.661,0,0,0,2,10.316a2.734,2.734,0,0,0,0,3.9,2.659,2.659,0,0,0,1.948.816Zm4.583-7.9,1.744,1.818v4.9H8.72V9.908L6.159,7.681a1.366,1.366,0,0,1-.445-1.113,1.592,1.592,0,0,1,.445-1.113L8.386,3.228A1.366,1.366,0,0,1,9.5,2.783a2.069,2.069,0,0,1,1.262.445l1.521,1.521A3.853,3.853,0,0,0,15.1,5.937v1.6a5.388,5.388,0,0,1-4.008-1.67l-.631-.631Zm6.513,1.188A3.927,3.927,0,0,1,19,12.265a3.927,3.927,0,0,1-3.952,3.952A3.927,3.927,0,0,1,11.1,12.265a3.927,3.927,0,0,1,3.952-3.952Zm0,6.717a2.786,2.786,0,0,0,2.764-2.764A2.755,2.755,0,0,0,13.1,10.318a2.733,2.733,0,0,0,0,3.9A2.659,2.659,0,0,0,15.048,15.03Z"/>
</svg>
