<svg xmlns="http://www.w3.org/2000/svg" width="19" height="14.25" viewBox="0 0 19 14.25">
  <path id="bill_icon" d="M17.824,14.251H1.2a1.156,1.156,0,0,1-.835-.343,1.135,1.135,0,0,1-.353-.844V1.188A1.156,1.156,0,0,1,.354.353,1.133,1.133,0,0,1,1.2,0H17.824a1.141,1.141,0,0,1,.835.352,1.141,1.141,0,0,1,.352.835V13.063a1.173,1.173,0,0,1-1.188,1.188Zm0-9.5H16.636a2.29,2.29,0,0,1-1.679-.7,2.286,2.286,0,0,1-.7-1.679V1.188h-9.5V2.376a2.29,2.29,0,0,1-.7,1.679,2.286,2.286,0,0,1-1.679.7H1.2V9.5H2.386a2.29,2.29,0,0,1,1.679.7,2.286,2.286,0,0,1,.7,1.679v1.188h9.5V11.876A2.376,2.376,0,0,1,16.636,9.5h1.188V4.75ZM9.511,11.876a3.07,3.07,0,0,1-2.524-1.392A5.454,5.454,0,0,1,5.948,7.126,5.454,5.454,0,0,1,6.987,3.768a2.984,2.984,0,0,1,5.047,0,5.454,5.454,0,0,1,1.039,3.358,5.454,5.454,0,0,1-1.039,3.358A3.07,3.07,0,0,1,9.511,11.876Z" transform="translate(-0.011 -0.001)"/>
</svg>
