<svg id="filter_pref_icon" xmlns="http://www.w3.org/2000/svg" width="24" height="24" viewBox="0 0 24 24">
  <path id="Path_47" data-name="Path 47" d="M23,3H11V5H23a1,1,0,0,0,0-2Z" fill="#e5e5e5"/>
  <path id="Path_48" data-name="Path 48" d="M1,5H3V7A1,1,0,0,0,4,8H8A1,1,0,0,0,9,7V1A1,1,0,0,0,8,0H4A1,1,0,0,0,3,1V3H1A1,1,0,0,0,1,5Z" fill="#e5e5e5"/>
  <path id="Path_49" data-name="Path 49" d="M23,11H21v2h2a1,1,0,0,0,0-2Z" fill="#e5e5e5"/>
  <path id="Path_50" data-name="Path 50" d="M1,13H13v2a1,1,0,0,0,1,1h4a1,1,0,0,0,1-1V9a1,1,0,0,0-1-1H14a1,1,0,0,0-1,1v2H1a1,1,0,0,0,0,2Z" fill="#e5e5e5"/>
  <path id="Path_51" data-name="Path 51" d="M23,19H11v2H23a1,1,0,0,0,0-2Z" fill="#e5e5e5"/>
  <path id="Path_52" data-name="Path 52" d="M8,16H4a1,1,0,0,0-1,1v2H1a1,1,0,0,0,0,2H3v2a1,1,0,0,0,1,1H8a1,1,0,0,0,1-1V17A1,1,0,0,0,8,16Z" fill="#e5e5e5"/>
</svg>
