<svg xmlns="http://www.w3.org/2000/svg" width="25.512" height="18.12" viewBox="0 0 25.512 18.12">
  <path id="internet_icon" d="M12.852,18.12q-.26,0-1.209-.955t-.948-1.214q0-.415.812-.7a4.23,4.23,0,0,1,1.344-.286,4.23,4.23,0,0,1,1.344.286q.812.286.812.7,0,.26-.948,1.214t-1.209.955Zm3.508-3.52a5.4,5.4,0,0,1-.519-.324,7.388,7.388,0,0,0-1.318-.65,4.494,4.494,0,0,0-1.67-.324,4.567,4.567,0,0,0-1.67.324,6.922,6.922,0,0,0-1.312.65,3.337,3.337,0,0,1-.526.324q-.233,0-1.214-.974t-.981-1.209a.411.411,0,0,1,.13-.3,7.1,7.1,0,0,1,2.546-1.572,8.3,8.3,0,0,1,6.052,0,7.054,7.054,0,0,1,2.546,1.572.411.411,0,0,1,.13.3q0,.233-.981,1.209T16.359,14.6ZM19.9,11.067a.54.54,0,0,1-.3-.1,15.335,15.335,0,0,0-3.273-2.007,8.794,8.794,0,0,0-3.482-.642,8.848,8.848,0,0,0-2.215.286A10.245,10.245,0,0,0,8.7,9.289q-.825.4-1.474.8T6.2,10.782a3.012,3.012,0,0,1-.4.286q-.221,0-1.195-.974T3.628,8.886a.4.4,0,0,1,.13-.286A11.863,11.863,0,0,1,7.916,5.937a13.322,13.322,0,0,1,9.872,0A11.863,11.863,0,0,1,21.945,8.6a.4.4,0,0,1,.13.286q0,.233-.974,1.209t-1.195.974Zm3.52-3.52a.455.455,0,0,1-.286-.117,17.418,17.418,0,0,0-4.826-3.072,14.177,14.177,0,0,0-5.461-1.032A14.187,14.187,0,0,0,7.389,4.358,17.392,17.392,0,0,0,2.563,7.43a.452.452,0,0,1-.286.117q-.221,0-1.2-.974T.1,5.365a.411.411,0,0,1,.13-.3A16.909,16.909,0,0,1,6.007,1.325a18.341,18.341,0,0,1,13.69,0,16.891,16.891,0,0,1,5.781,3.741.411.411,0,0,1,.13.3q0,.233-.981,1.209t-1.2.974Z" transform="translate(-0.096)"/>
</svg>
