<svg id="share" xmlns="http://www.w3.org/2000/svg" width="22" height="22" viewBox="0 0 22 22">
  <path id="Path_69" data-name="Path 69" d="M14.242,9.758a6.01,6.01,0,0,0-1.659-1.169,1.96,1.96,0,0,0-.481,2.019,3.99,3.99,0,0,1,.727,6.221l-3,3a4.1,4.1,0,0,1-5.657,0,4,4,0,0,1,0-5.656l2.1-2.1A8.049,8.049,0,0,1,6,10c0-.162.013-.323.023-.483-.089.079-.18.156-.266.241l-3,3a6,6,0,1,0,8.486,8.484l3-3a6,6,0,0,0,0-8.485Z" transform="translate(-1 -1)"/>
  <path id="Path_70" data-name="Path 70" d="M21.243,2.758a6,6,0,0,0-8.486,0l-3,3a5.992,5.992,0,0,0,1.659,9.654,1.962,1.962,0,0,0,.478-2.033,3.7,3.7,0,0,1-.721-.55,4,4,0,0,1,0-5.657l3-3a4,4,0,0,1,5.658,5.656l-2.107,2.107A7.985,7.985,0,0,1,18,14c0,.162-.012.322-.021.482.089-.079.18-.155.265-.24l3-3a6,6,0,0,0,0-8.484Z" transform="translate(-1 -1)"/>
</svg>
