<svg xmlns="http://www.w3.org/2000/svg" width="19" height="21.194" viewBox="0 0 19 21.194">
  <g id="shield_icon" transform="translate(-1.516 -0.594)">
    <path id="Path_101" data-name="Path 101" d="M7.4,2.7q-1.938.521-3.85,1.133a.641.641,0,0,0-.445.518A15.7,15.7,0,0,0,6.165,16.522a14.373,14.373,0,0,0,3.1,2.957,8.415,8.415,0,0,0,1.211.707,3.07,3.07,0,0,0,.4.156,1.031,1.031,0,0,0,.137.035.869.869,0,0,0,.137-.032,3.374,3.374,0,0,0,.4-.157,8.545,8.545,0,0,0,1.211-.707,14.408,14.408,0,0,0,3.1-2.957A15.7,15.7,0,0,0,18.924,4.35a.641.641,0,0,0-.445-.518c-.884-.283-2.376-.744-3.85-1.133a18.189,18.189,0,0,0-3.612-.694A18.132,18.132,0,0,0,7.4,2.7ZM7.042,1.335A18.916,18.916,0,0,1,11.016.594a19.008,19.008,0,0,1,3.974.741q1.972.529,3.917,1.152A2.055,2.055,0,0,1,20.324,4.16,17.121,17.121,0,0,1,16.98,17.392a15.812,15.812,0,0,1-3.416,3.25,9.809,9.809,0,0,1-1.423.828,2.942,2.942,0,0,1-1.124.318,2.936,2.936,0,0,1-1.124-.318,9.76,9.76,0,0,1-1.423-.828,15.813,15.813,0,0,1-3.415-3.25A17.1,17.1,0,0,1,1.708,4.16,2.055,2.055,0,0,1,3.125,2.487q1.945-.622,3.917-1.152Z" transform="translate(0 0)" fill-rule="evenodd"/>
  </g>
</svg>
