<svg xmlns="http://www.w3.org/2000/svg" width="19" height="18.759" viewBox="0 0 19 18.759">
  <path id="spanner_icon" d="M4.443,15.346a.7.7,0,0,0-.22-.514.734.734,0,0,0-1.042,0,.71.71,0,0,0,0,1.028.734.734,0,0,0,1.042,0A.7.7,0,0,0,4.443,15.346Zm7.456-4.8L4,18.337a1.429,1.429,0,0,1-1.042.422,1.494,1.494,0,0,1-1.054-.422L.68,17.1a1.348,1.348,0,0,1-.44-1.028,1.408,1.408,0,0,1,.44-1.039L8.565,7.262A5.807,5.807,0,0,0,9.891,9.243,5.9,5.9,0,0,0,11.9,10.55ZM19.24,5.583a3.943,3.943,0,0,1-.267,1.21,5.03,5.03,0,0,1-1.9,2.483,5.112,5.112,0,0,1-2.992.955,5.031,5.031,0,0,1-3.665-1.5A4.893,4.893,0,0,1,8.889,5.115,4.893,4.893,0,0,1,10.412,1.5,5.028,5.028,0,0,1,14.077,0a5.677,5.677,0,0,1,1.406.188,3.973,3.973,0,0,1,1.244.531.369.369,0,0,1,0,.64l-3.393,1.93V5.847l2.235,1.222.915-.554q.857-.52,1.569-.925a3.831,3.831,0,0,1,.817-.406.34.34,0,0,1,.272.114.421.421,0,0,1,.1.285Z" transform="translate(-0.24)"/>
</svg>
